<svg xmlns:xlink="http://www.w3.org/1999/xlink" xmlns="http://www.w3.org/2000/svg" data-v-1260854b="" extra-class="b-default-avatar" class="g-icon b-default-avatar" aria-hidden="true" width="24"  height="24" ><defs><symbol id="icon-profile" viewBox="0 0 24 24"> <path d="M12 12a5 5 0 1 0-5-5 5 5 0 0 0 5 5zm0-8a3 3 0 1 1-3 3 3 3 0 0 1 3-3zm9 17c0-2.27-3.2-7-9-7s-9 4.74-9 7a1 1 0 0 0 2 .2 7 7 0 0 1 7-5.2 7 7 0 0 1 7 5.2 1 1 0 0 0 2-.2z"></path> </symbol></defs><use xlink:href="#icon-profile" href="#icon-profile" fill-opacity="0.4" fill="#8A96A3"></use></svg>