<svg xmlns:xlink="http://www.w3.org/1999/xlink" xmlns="http://www.w3.org/2000/svg" data-v-31aa927c="" class="g-icon" aria-hidden="true" width="32"  height="32" ><defs><symbol id="icon-menu" viewBox="0 0 32 32"> <path d="M16,4A12,12,0,1,0,28,16,12,12,0,0,0,16,4Zm0,22a10.17,10.17,0,0,1-2.66-.37,3,3,0,0,1,5.32,0A10.17,10.17,0,0,1,16,26Zm4.52-1.09a5,5,0,0,0-9,0,10,10,0,1,1,9,0ZM16,12a4,4,0,1,0,4,4A4,4,0,0,0,16,12Zm0,6a2,2,0,1,1,2-2A2,2,0,0,1,16,18Z"></path> </symbol></defs><use xlink:href="#icon-menu" href="#icon-menu" fill="#8A96A3"></use></svg>