<svg xmlns:xlink="http://www.w3.org/1999/xlink" xmlns="http://www.w3.org/2000/svg" data-v-31aa927c="" extra-class="m-nav-icon" class="g-icon m-nav-icon" aria-hidden="true" width="33"  height="33" ><defs><symbol id="icon-add-card-lg" viewBox="0 0 32 32"> <path d="M20 24H8a2 2 0 0 1-2-2v-6h20v2a1 1 0 0 0 2 0v-8a4 4 0 0 0-4-4H8a4 4 0 0 0-4 4v12a4 4 0 0 0 4 4h12a1 1 0 0 0 0-2ZM6 10a2 2 0 0 1 2-2h16a2 2 0 0 1 2 2v1H6Zm24 14h-2v-2a1 1 0 0 0-2 0v2h-2a1 1 0 0 0 0 2h2v2a1 1 0 0 0 2 0v-2h2a1 1 0 0 0 0-2Z"></path> </symbol></defs><use xlink:href="#icon-add-card-lg" href="#icon-add-card-lg" fill="#8A96A3"></use></svg>