<svg xmlns:xlink="http://www.w3.org/1999/xlink" xmlns="http://www.w3.org/2000/svg" data-v-31aa927c="" extra-class="m-nav-icon" class="g-icon m-nav-icon" aria-hidden="true" width="33"  height="33" ><defs><symbol id="icon-home" viewBox="0 0 32 32"> <path d="M29,13.82a1,1,0,0,0-.37-.77l-12-9.82a1,1,0,0,0-1.26,0l-12,9.82a1,1,0,0,0-.37.77,1,1,0,0,0,1,1,.94.94,0,0,0,.63-.23L6,13.47V24.2A2.81,2.81,0,0,0,8.8,27h2.9a2.81,2.81,0,0,0,2.8-2.8V22.8a.8.8,0,0,1,.8-.8h1.4a.8.8,0,0,1,.8.8v1.4A2.81,2.81,0,0,0,20.3,27h2.9A2.81,2.81,0,0,0,26,24.2V13.47l1.37,1.12a.94.94,0,0,0,.63.23A1,1,0,0,0,29,13.82ZM24,24.2a.8.8,0,0,1-.8.8H20.3a.8.8,0,0,1-.8-.8V22.8A2.81,2.81,0,0,0,16.7,20H15.3a2.81,2.81,0,0,0-2.8,2.8v1.4a.8.8,0,0,1-.8.8H8.8a.8.8,0,0,1-.8-.8V11.84l8-6.55,8,6.55Z"></path> </symbol></defs><use xlink:href="#icon-home" href="#icon-home" fill="#8A96A3"></use></svg>