<svg xmlns:xlink="http://www.w3.org/1999/xlink" xmlns="http://www.w3.org/2000/svg" class="g-icon" aria-hidden="true" width="24"  height="24" ><defs><symbol id="icon-location" viewBox="0 0 24 24"> <path d="M12 2a7 7 0 0 0-7 7c0 3.26 2.05 7.45 6.08 12.45l.14.17a1 1 0 0 0 1.56 0l.14-.17C17 16.45 19 12.26 19 9a7 7 0 0 0-7-7zm0 17.39C7.89 14.09 7 10.83 7 9a5 5 0 0 1 10 0c0 1.83-.89 5.09-5 10.39zM12 6.8A2.2 2.2 0 1 0 14.2 9 2.19 2.19 0 0 0 12 6.8z"></path> </symbol></defs><use xlink:href="#icon-location" href="#icon-location" fill="#8A96A3"></use></svg>