<svg xmlns:xlink="http://www.w3.org/1999/xlink" xmlns="http://www.w3.org/2000/svg" class="g-icon" aria-hidden="true" width="64"  height="64" ><defs><symbol id="icon-locked" viewBox="0 0 24 24"> <path d="M17.5,8H17V6A5,5,0,0,0,7,6V8H6.5A2.5,2.5,0,0,0,4,10.5V18a4,4,0,0,0,4,4h8a4,4,0,0,0,4-4V10.5A2.5,2.5,0,0,0,17.5,8ZM9,6a3,3,0,0,1,6,0V8H9Zm9,12a2,2,0,0,1-2,2H8a2,2,0,0,1-2-2V10.5a.5.5,0,0,1,.5-.5h11a.5.5,0,0,1,.5.5Zm-6-5a1,1,0,0,0-1,1v2a1,1,0,0,0,2,0V14A1,1,0,0,0,12,13Z"></path> </symbol></defs><use xlink:href="#icon-locked" href="#icon-locked" fill="#8A96A3"></use></svg>