<svg width="924" height="231" viewBox="0 0 924 231" fill="none" xmlns="http://www.w3.org/2000/svg">
<g clip-path="url(#clip0_7_31)">
<path fill-rule="evenodd" clip-rule="evenodd" d="M83.5931 50.5313C67.1098 50.5741 51.009 55.5018 37.3251 64.6917C23.6413 73.8816 12.9884 86.9213 6.71266 102.163C0.436881 117.405 -1.18022 134.165 2.06569 150.326C5.3116 166.487 13.2749 181.323 24.9493 192.959C36.6237 204.596 51.4853 212.511 67.6564 215.704C83.8275 218.898 100.582 217.226 115.804 210.901C131.025 204.576 144.03 193.881 153.176 180.167C162.321 166.454 167.197 150.337 167.186 133.854C167.143 111.722 158.314 90.5121 142.638 74.8877C126.963 59.2632 105.725 50.5025 83.5931 50.5313ZM83.5931 208.568C68.8325 208.532 54.4135 204.123 42.1573 195.897C29.9011 187.671 20.3575 175.998 14.7319 162.351C9.10633 148.705 7.65107 133.697 10.55 119.224C13.4489 104.751 20.5719 91.461 31.0193 81.0338C41.4667 70.6065 54.77 63.5091 69.2488 60.6382C83.7276 57.7672 98.7324 59.2515 112.368 64.9034C126.004 70.5553 137.659 80.1214 145.861 92.3935C154.063 104.666 158.444 119.093 158.452 133.854C158.423 153.682 150.521 172.687 136.483 186.691C122.446 200.695 103.421 208.551 83.5931 208.532V208.568Z" fill="#313131"/>
<path d="M187.399 195.448H198.064V131.129C198.064 108.029 214.848 91.4254 236.649 91.4254C259.099 91.4254 271.966 106.459 271.966 129.324V195.375H282.65V127.429C282.65 100.828 266.3 81.644 238.183 81.644C217.916 81.644 205.482 91.8947 198.064 104.979V84.2608H187.399V195.448ZM322.534 36.2922H333.217V195.448H322.534V36.2922ZM388.802 231C404.719 231 416.053 222.698 425.852 199.382L474.037 84.2608H462.253L422.152 183.681L375.934 84.2608H363.518L416.883 194.798C408.599 214.198 400.965 220.966 389.415 220.966C382.849 221.215 376.327 219.786 370.466 216.815L366.749 226.2C373.639 229.456 381.181 231.098 388.802 231Z" fill="#313131"/>
<path d="M515.024 4.584C527.184 4.584 538.128 7.016 547.856 11.88C557.584 16.616 565.776 23.016 572.432 31.08C579.216 39.016 584.4 48.168 587.984 58.536C591.568 68.776 593.36 79.464 593.36 90.6C593.36 103.528 591.056 116.008 586.448 128.04C581.84 139.944 575.632 151.08 567.824 161.448C560.016 171.688 551.056 181.032 540.944 189.48C530.832 197.928 520.208 205.16 509.072 211.176C498.064 217.32 486.992 221.992 475.856 225.192C464.72 228.52 454.224 230.184 444.368 230.184C430.928 230.184 419.088 228.52 408.848 225.192C398.608 221.864 390.032 217.064 383.12 210.792C376.208 204.648 371.024 197.16 367.568 188.328C363.984 179.496 362.192 169.512 362.192 158.376C362.192 150.952 363.856 143.784 367.184 136.872C370.384 129.832 374.224 123.688 378.704 118.44C383.184 113.064 387.792 108.776 392.528 105.576C397.136 102.376 400.784 100.776 403.472 100.776C404.624 100.776 405.968 101.096 407.504 101.736C409.04 102.248 409.808 103.016 409.808 104.04C409.808 104.552 408.464 106.152 405.776 108.84C402.96 111.4 399.952 114.984 396.752 119.592C393.424 124.072 390.416 129.512 387.728 135.912C384.912 142.184 383.504 149.288 383.504 157.224C383.504 166.44 384.592 174.888 386.768 182.568C388.816 190.248 392.272 196.84 397.136 202.344C401.872 207.976 408.144 212.328 415.952 215.4C423.76 218.6 433.296 220.2 444.56 220.2C453.776 220.2 463.248 218.216 472.976 214.248C482.832 210.28 492.432 204.968 501.776 198.312C511.12 191.656 519.952 183.976 528.272 175.272C536.592 166.568 543.888 157.48 550.16 148.008C556.432 138.536 561.36 129 564.944 119.4C568.656 109.672 570.512 100.584 570.512 92.136C570.512 79.976 569.168 69.032 566.48 59.304C563.92 49.448 560.336 41.128 555.728 34.344C551.12 27.432 545.68 22.12 539.408 18.408C533.136 14.696 526.288 12.84 518.864 12.84C511.568 12.84 504.208 14.696 496.784 18.408C489.488 22.12 482.896 26.984 477.008 33C471.248 38.888 466.512 45.608 462.8 53.16C459.216 60.584 457.424 68.136 457.424 75.816C457.424 80.808 457.808 85.608 458.576 90.216C459.472 94.696 460.816 98.856 462.608 102.696C464.4 106.408 466.704 109.672 469.52 112.488C472.336 115.304 475.728 117.416 479.696 118.824C483.536 112.552 487.376 106.536 491.216 100.776C495.056 94.888 498.768 89.768 502.352 85.416C505.936 80.936 509.328 77.352 512.528 74.664C515.856 71.976 518.864 70.632 521.552 70.632C523.472 70.632 525.648 70.76 528.08 71.016C530.512 71.272 532.752 71.848 534.8 72.744C536.848 73.512 538.576 74.728 539.984 76.392C541.392 78.056 542.096 80.232 542.096 82.92C542.096 85.48 541.008 88.936 538.832 93.288C536.656 97.64 533.584 102.056 529.616 106.536C525.648 111.016 520.912 115.176 515.408 119.016C509.904 122.728 503.824 125.16 497.168 126.312C493.072 133.608 488.912 140.904 484.688 148.2C480.464 155.496 476.304 162.024 472.208 167.784C468.24 173.544 464.336 178.28 460.496 181.992C456.656 185.576 453.072 187.368 449.744 187.368C445.264 187.368 441.808 186.984 439.376 186.216C436.944 185.448 435.28 184.68 434.384 183.912C433.36 183.016 432.976 182.184 433.232 181.416C433.488 180.648 434 180.264 434.768 180.264C436.816 180.264 439.312 178.728 442.256 175.656C445.2 172.456 448.464 168.296 452.048 163.176C455.632 157.928 459.408 152.04 463.376 145.512C467.472 138.856 471.632 132.072 475.856 125.16C470.352 123.496 465.424 121 461.072 117.672C456.848 114.216 453.328 110.248 450.512 105.768C447.568 101.288 445.392 96.424 443.984 91.176C442.448 85.8 441.68 80.36 441.68 74.856C441.68 67.432 443.344 59.624 446.672 51.432C450 43.112 454.8 35.496 461.072 28.584C467.472 21.672 475.216 15.976 484.304 11.496C493.392 6.888 503.632 4.584 515.024 4.584ZM532.688 79.272C530.64 79.272 528.4 80.36 525.968 82.536C523.664 84.712 521.168 87.656 518.48 91.368C515.792 94.952 512.976 99.176 510.032 104.04C507.088 108.904 504.08 114.024 501.008 119.4C506.128 117.992 510.8 115.624 515.024 112.296C519.248 108.968 522.896 105.448 525.968 101.736C529.04 97.896 531.408 94.312 533.072 90.984C534.864 87.656 535.76 85.288 535.76 83.88C535.76 82.472 535.568 81.384 535.184 80.616C534.928 79.72 534.096 79.272 532.688 79.272ZM732.353 110.952C732.993 110.056 733.697 109.544 734.465 109.416C735.361 109.288 736.065 109.352 736.577 109.608C737.217 109.864 737.601 110.376 737.729 111.144C737.857 111.784 737.665 112.488 737.153 113.256C734.849 116.456 731.649 120.872 727.553 126.504C723.457 132.136 718.913 138.216 713.921 144.744C708.929 151.144 703.617 157.736 697.985 164.52C692.353 171.176 686.849 177.192 681.473 182.568C676.225 187.944 671.233 192.36 666.497 195.816C661.761 199.272 657.729 201 654.401 201C650.049 201 646.849 200.04 644.801 198.12C642.881 196.072 641.601 193.832 640.961 191.4C640.193 188.584 640.001 185.32 640.385 181.608C637.953 185.32 635.265 188.584 632.321 191.4C629.761 193.832 626.753 196.072 623.297 198.12C619.969 200.04 616.449 201 612.737 201C610.049 201 607.169 200.488 604.097 199.464C601.025 198.44 598.145 196.776 595.457 194.472C592.897 192.04 590.785 188.904 589.121 185.064C587.457 181.224 586.625 176.488 586.625 170.856C586.625 166.12 587.521 160.744 589.313 154.728C591.233 148.712 593.857 142.632 597.185 136.488C600.641 130.216 604.737 124.072 609.473 118.056C614.337 112.04 619.649 106.728 625.409 102.12C631.297 97.384 637.569 93.608 644.225 90.792C650.881 87.976 657.857 86.568 665.153 86.568C668.865 86.568 671.937 87.144 674.369 88.296C676.929 89.448 678.977 91.048 680.513 93.096C682.049 95.144 683.137 97.576 683.777 100.392C684.545 103.208 684.929 106.28 684.929 109.608C684.929 112.808 684.225 116.328 682.817 120.168C683.969 120.424 685.185 120.808 686.465 121.32C687.745 121.832 688.961 122.408 690.113 123.048C691.265 123.56 692.225 124.136 692.993 124.776C693.761 125.288 694.145 125.8 694.145 126.312C694.145 126.696 692.993 128.424 690.689 131.496C688.513 134.44 685.825 138.088 682.625 142.44C679.553 146.664 676.353 151.272 673.025 156.264C669.825 161.256 667.137 165.864 664.961 170.088C662.785 174.184 661.569 177.64 661.313 180.456C661.057 183.272 662.401 184.68 665.345 184.68C667.521 184.68 670.401 183.208 673.985 180.264C677.697 177.192 681.729 173.352 686.081 168.744C690.561 164.008 695.169 158.824 699.905 153.192C704.641 147.432 709.121 141.8 713.345 136.296C717.569 130.792 721.345 125.8 724.673 121.32C728.129 116.712 730.689 113.256 732.353 110.952ZM614.465 191.4C617.793 191.4 621.313 190.056 625.025 187.368C628.737 184.68 632.513 181.224 636.353 177C640.193 172.776 643.969 168.104 647.681 162.984C651.521 157.736 655.169 152.616 658.625 147.624C657.601 146.472 656.641 145.32 655.745 144.168C654.977 143.016 654.593 142.312 654.593 142.056C654.593 141.8 655.425 140.776 657.089 138.984C658.881 137.064 660.801 134.632 662.849 131.688C665.025 128.744 667.009 125.416 668.801 121.704C670.593 117.864 671.489 113.832 671.489 109.608C671.489 106.664 670.849 104.296 669.569 102.504C668.417 100.584 666.497 99.624 663.809 99.624C657.409 99.624 651.137 101.928 644.993 106.536C638.849 111.016 633.217 116.648 628.097 123.432C623.105 130.216 618.753 137.576 615.041 145.512C611.457 153.448 608.897 160.808 607.361 167.592C605.825 174.376 605.569 180.072 606.593 184.68C607.617 189.16 610.241 191.4 614.465 191.4ZM766.235 201C762.139 201 759.003 200.04 756.827 198.12C754.651 196.2 753.115 194.088 752.219 191.784C751.067 189.096 750.555 185.96 750.683 182.376C750.683 177 752.155 171.24 755.099 165.096C758.043 158.952 761.563 152.872 765.659 146.856C769.755 140.712 774.043 134.824 778.523 129.192C783.003 123.432 786.779 118.44 789.851 114.216C792.923 109.864 794.843 106.408 795.611 103.848C796.507 101.16 795.355 99.816 792.155 99.816C789.595 99.816 786.395 101.288 782.555 104.232C778.715 107.048 774.491 110.824 769.883 115.56C765.275 120.296 760.411 125.736 755.291 131.88C750.299 137.896 745.307 144.104 740.315 150.504C735.451 156.776 730.651 162.984 725.915 169.128C721.307 175.144 717.083 180.52 713.243 185.256C709.531 189.992 706.331 193.832 703.643 196.776C701.083 199.592 699.291 201 698.267 201C696.475 201 694.811 200.68 693.275 200.04C691.739 199.4 690.395 198.632 689.243 197.736C688.091 196.84 687.259 196.008 686.747 195.24C686.107 194.344 685.787 193.704 685.787 193.32C685.787 192.936 687.131 190.696 689.819 186.6C692.379 182.376 695.643 177.064 699.611 170.664C703.579 164.136 707.867 156.904 712.475 148.968C717.083 141.032 721.371 133.224 725.339 125.544C729.307 117.736 732.571 110.504 735.131 103.848C737.819 97.064 739.163 91.56 739.163 87.336C739.163 86.824 739.995 86.632 741.659 86.76C743.451 86.76 745.371 87.272 747.419 88.296C749.595 89.192 751.579 90.6 753.371 92.52C755.163 94.44 756.059 96.936 756.059 100.008C756.059 103.08 755.227 106.792 753.563 111.144C751.899 115.368 750.043 119.464 747.995 123.432C746.075 127.272 744.347 130.6 742.811 133.416C741.403 136.232 740.891 137.64 741.275 137.64C741.531 137.64 742.683 136.424 744.731 133.992C746.907 131.432 749.659 128.232 752.987 124.392C756.315 120.552 760.091 116.456 764.315 112.104C768.539 107.752 772.955 103.656 777.563 99.816C782.171 95.976 786.779 92.84 791.387 90.408C796.123 87.848 800.539 86.568 804.635 86.568C808.987 86.568 812.123 87.912 814.043 90.6C815.963 93.288 816.923 97.064 816.923 101.928C816.923 105.128 816.027 108.776 814.235 112.872C812.571 116.968 810.395 121.256 807.707 125.736C805.019 130.216 802.011 134.824 798.683 139.56C795.483 144.168 792.283 148.648 789.083 153C786.011 157.352 783.131 161.448 780.443 165.288C777.755 169.128 775.707 172.52 774.299 175.464C773.019 178.28 772.507 180.52 772.763 182.184C773.019 183.848 774.427 184.68 776.987 184.68C779.163 184.68 782.043 183.208 785.627 180.264C789.339 177.192 793.371 173.352 797.723 168.744C802.203 164.008 806.811 158.824 811.547 153.192C816.283 147.432 820.763 141.8 824.987 136.296C829.211 130.792 832.987 125.8 836.315 121.32C839.771 116.712 842.331 113.256 843.995 110.952C844.635 110.056 845.339 109.544 846.107 109.416C847.003 109.288 847.707 109.352 848.219 109.608C848.859 109.864 849.243 110.376 849.371 111.144C849.499 111.784 849.307 112.488 848.795 113.256C846.491 116.456 843.355 120.872 839.387 126.504C835.419 132.136 831.003 138.216 826.139 144.744C821.275 151.144 816.091 157.736 810.587 164.52C805.083 171.176 799.643 177.192 794.267 182.568C789.019 187.944 783.963 192.36 779.099 195.816C774.235 199.272 769.947 201 766.235 201ZM924.842 110.952C925.482 110.056 926.186 109.544 926.954 109.416C927.722 109.288 928.362 109.352 928.874 109.608C929.514 109.864 929.898 110.376 930.026 111.144C930.282 111.784 930.154 112.488 929.642 113.256C927.338 116.456 924.266 120.872 920.426 126.504C916.714 132.136 912.426 138.216 907.562 144.744C902.826 151.144 897.642 157.736 892.01 164.52C886.378 171.176 880.554 177.192 874.538 182.568C868.522 187.944 862.378 192.36 856.106 195.816C849.834 199.272 843.69 201 837.674 201H834.794C830.57 201 826.922 200.296 823.85 198.888C820.778 197.48 818.218 195.688 816.17 193.512C814.25 191.336 812.842 188.84 811.946 186.024C810.922 183.208 810.41 180.456 810.41 177.768C810.41 175.336 810.794 173.544 811.562 172.392C812.33 171.24 813.162 170.664 814.058 170.664C814.954 170.536 815.786 170.984 816.554 172.008C817.322 172.904 817.706 174.248 817.706 176.04C817.706 179.496 818.794 182.696 820.97 185.64C823.274 188.456 827.114 189.864 832.49 189.864C837.994 189.864 842.026 187.944 844.586 184.104C847.146 180.264 848.746 175.336 849.386 169.32C850.026 163.176 849.962 156.392 849.194 148.968C848.554 141.416 847.594 133.992 846.314 126.696C845.162 119.272 844.01 112.424 842.858 106.152C841.834 99.752 841.322 94.696 841.322 90.984C841.322 86.76 842.282 82.792 844.202 79.08C846.25 75.368 848.81 72.168 851.882 69.48C854.954 66.664 858.41 64.488 862.25 62.952C866.09 61.416 869.866 60.648 873.578 60.648C875.37 60.648 876.842 61.096 877.994 61.992C879.146 62.76 879.722 63.656 879.722 64.68C879.722 66.216 878.954 67.944 877.418 69.864C875.882 71.656 874.218 73.704 872.426 76.008C870.634 78.312 868.97 80.936 867.434 83.88C865.898 86.824 865.13 90.216 865.13 94.056C865.13 99.816 865.642 105.512 866.666 111.144C867.69 116.776 868.778 122.408 869.93 128.04C871.21 133.544 872.362 139.048 873.386 144.552C874.41 149.928 874.922 155.368 874.922 160.872C874.922 163.048 874.73 165.352 874.346 167.784C874.09 170.088 873.642 172.264 873.002 174.312C875.946 171.88 879.018 168.872 882.218 165.288C885.546 161.704 888.938 157.864 892.394 153.768C895.85 149.672 899.242 145.448 902.57 141.096C905.898 136.744 908.97 132.648 911.786 128.808C914.73 124.84 917.29 121.32 919.466 118.248C921.77 115.176 923.562 112.744 924.842 110.952Z" fill="#00AFF0"/>
<path d="M141.147 117.071L138.887 106.617C138.604 105.486 137.474 104.78 136.344 105.062C135.214 105.345 134.507 106.334 134.649 107.323L69.2375 125.125L68.8137 123.711C68.39 122.581 67.2596 122.016 66.1292 122.44C64.9988 122.864 64.4342 123.994 64.8579 125.125L65.4226 126.962L27.7014 160.303C26.9948 160.868 26.8539 161.857 27.1367 162.705C27.4195 163.411 28.2671 163.976 29.1145 163.976H29.3974L72.0633 158.749C73.0528 160.586 75.0307 161.857 77.2904 161.857C80.6813 161.857 83.3648 159.173 83.3648 155.783C83.3648 155.359 83.3648 154.935 83.2239 154.511L137.192 118.486C137.616 119.192 138.322 119.616 139.029 119.616H139.453C140.582 119.333 141.289 118.203 141.147 117.072L141.147 117.071ZM66.8352 131.341L73.3345 150.979C72.2041 151.826 71.4976 153.097 71.2157 154.511L35.6137 158.89L66.8352 131.341ZM77.29 157.619C76.3006 157.619 75.4531 156.771 75.4531 155.782C75.4531 154.792 76.3006 153.945 77.29 153.945C78.2795 153.945 79.1269 154.792 79.1269 155.782C79.126 156.771 78.2784 157.619 77.29 157.619ZM80.963 150.98C79.9736 150.273 78.8442 149.708 77.4311 149.708L70.5082 129.081L135.496 111.421L136.061 114.106L80.963 150.98Z" fill="#00AFF0"/>
</g>
<defs>
<clipPath id="clip0_7_31">
<rect width="924" height="231" fill="white"/>
</clipPath>
</defs>
</svg>
