<svg xmlns:xlink="http://www.w3.org/1999/xlink" xmlns="http://www.w3.org/2000/svg" data-v-31aa927c="" extra-class="m-nav-icon" class="g-icon m-nav-icon" aria-hidden="true" width="33"  height="33" ><defs><symbol id="icon-messages" viewBox="0 0 32 32"> <path d="M21,5H11a6,6,0,0,0-6,6V28.5a1,1,0,0,0,.81,1l.19,0a1,1,0,0,0,.93-.63A3,3,0,0,1,9.69,27H21a6,6,0,0,0,6-6V11A6,6,0,0,0,21,5Zm4,16a4,4,0,0,1-4,4H9.69A4.9,4.9,0,0,0,7,25.79V11a4,4,0,0,1,4-4H21a4,4,0,0,1,4,4Zm-6-8H13a1,1,0,0,0,0,2h6a1,1,0,0,0,0-2Zm-3,4H13a1,1,0,0,0,0,2h3a1,1,0,0,0,0-2Z"></path> </symbol></defs><use xlink:href="#icon-messages" href="#icon-messages" fill="#8A96A3"></use></svg>