<svg xmlns:xlink="http://www.w3.org/1999/xlink" xmlns="http://www.w3.org/2000/svg" class="g-icon" aria-hidden="true" width="24"  height="24" ><defs><symbol id="icon-loading" viewBox="0 0 24 24"> <path d="M12 .9a2.12 2.12 0 1 0 1.48.62A2.09 2.09 0 0 0 12 .9zM5.64 3.69A1.95 1.95 0 1 0 7 4.26a1.95 1.95 0 0 0-1.36-.57zM4.79 12a1.75 1.75 0 0 0-.53-1.26 1.76 1.76 0 0 0-2.52 0 1.76 1.76 0 0 0 0 2.52 1.76 1.76 0 0 0 2.52 0A1.75 1.75 0 0 0 4.79 12zm.85 4.74a1.67 1.67 0 0 0-1.16.47A1.64 1.64 0 0 0 4 18.36 1.61 1.61 0 0 0 5.64 20a1.64 1.64 0 0 0 1.15-.47 1.67 1.67 0 0 0 .47-1.16 1.6 1.6 0 0 0-1.62-1.62zM12 19.53a1.47 1.47 0 1 0 1 .47 1.45 1.45 0 0 0-1-.47zm6.36-2.48a1.3 1.3 0 0 0-1.31 1.31 1.31 1.31 0 0 0 1.31 1.32 1.33 1.33 0 0 0 1.32-1.32 1.31 1.31 0 0 0-1.32-1.31zm3.46-5.87a1.16 1.16 0 1 0 .34.82 1.16 1.16 0 0 0-.34-.82zm-3.46-4.54a1 1 0 0 0 .71-.3 1 1 0 0 0-1.41-1.41 1 1 0 0 0 .7 1.71z"></path> </symbol></defs><use xlink:href="#icon-loading" href="#icon-loading" fill="#242529"></use></svg>