<svg xmlns:xlink="http://www.w3.org/1999/xlink" xmlns="http://www.w3.org/2000/svg" extra-class="m-pointer-disabled" class="g-icon m-pointer-disabled" aria-hidden="true" width="24"  height="24" ><defs><symbol id="icon-close" viewBox="0 0 24 24"> <path d="M13.41 12l5.3-5.29A1 1 0 0 0 19 6a1 1 0 0 0-1-1 1 1 0 0 0-.71.29L12 10.59l-5.29-5.3A1 1 0 0 0 6 5a1 1 0 0 0-1 1 1 1 0 0 0 .29.71l5.3 5.29-5.3 5.29A1 1 0 0 0 5 18a1 1 0 0 0 1 1 1 1 0 0 0 .71-.29l5.29-5.3 5.29 5.3A1 1 0 0 0 18 19a1 1 0 0 0 1-1 1 1 0 0 0-.29-.71z"></path> </symbol></defs><use xlink:href="#icon-close" href="#icon-close" fill="#FEFEFE"></use></svg>